<?xml version="1.0" encoding="utf-8"?>
<!-- Generator: Adobe Illustrator 25.0.0, SVG Export Plug-In . SVG Version: 6.00 Build 0)  -->
<svg version="1.1" id="Layer_1" xmlns="http://www.w3.org/2000/svg" xmlns:xlink="http://www.w3.org/1999/xlink" x="0px" y="0px"
	 viewBox="0 0 100 20" style="enable-background:new 0 0 100 20;" xml:space="preserve">
<style type="text/css">
	.st0{fill:#020617;}
	.st1{fill:#1E293B;}
</style>
<g>
	<path class="st0" d="M27.2,11.8l2.7-0.5c0.2,0.8,0.8,1.1,1.7,1.1c0.7,0,1.1-0.2,1.1-0.6c0-0.2-0.1-0.4-0.2-0.5
		c-0.2-0.1-0.5-0.2-0.9-0.3c-1.6-0.3-2.7-0.7-3.2-1.2c-0.5-0.5-0.7-1.1-0.7-1.8c0-0.9,0.3-1.6,1-2.2C29.3,5.3,30.3,5,31.5,5
		c1.9,0,3.2,0.8,3.8,2.3L32.9,8c-0.2-0.6-0.7-0.9-1.5-0.9c-0.6,0-0.9,0.2-0.9,0.6c0,0.2,0.1,0.3,0.2,0.4s0.4,0.2,0.8,0.3
		c1.1,0.2,1.9,0.4,2.4,0.6s0.9,0.5,1.2,0.9c0.3,0.4,0.5,1,0.5,1.6c0,0.9-0.4,1.7-1.1,2.3s-1.8,0.9-3,0.9
		C29.1,14.7,27.7,13.7,27.2,11.8z"/>
	<path class="st0" d="M43.4,14.5h-2.7v-4.2c0-0.4,0-0.6-0.1-0.8c-0.1-0.1-0.2-0.2-0.5-0.2c-0.2,0-0.3,0.1-0.5,0.2
		c-0.1,0.1-0.2,0.2-0.2,0.3c0,0.1,0,0.4,0,0.7v3.9h-2.7V5.2h2.7v3.2c0.5-0.6,1.1-1,1.9-1c0.4,0,0.8,0.1,1.1,0.2
		c0.3,0.1,0.5,0.3,0.7,0.5s0.3,0.4,0.3,0.6s0.1,0.6,0.1,1.2V14.5z"/>
	<path class="st0" d="M48.2,14.7c-1.2,0-2.1-0.4-2.7-1.1c-0.7-0.7-1-1.6-1-2.5c0-1,0.4-1.9,1.1-2.6c0.7-0.7,1.6-1,2.8-1
		c1.1,0,2.1,0.3,2.8,1c0.7,0.7,1,1.5,1,2.6c0,1-0.4,1.9-1.1,2.6C50.3,14.3,49.4,14.7,48.2,14.7z M48.2,13c0.4,0,0.7-0.2,0.8-0.7
		c0.1-0.4,0.1-0.9,0.1-1.4c0-0.7-0.1-1.1-0.2-1.4s-0.4-0.4-0.7-0.4c-0.3,0-0.5,0.1-0.7,0.4s-0.2,0.8-0.2,1.5c0,0.8,0.1,1.3,0.2,1.6
		C47.7,12.9,47.9,13,48.2,13z"/>
	<path class="st0" d="M56.1,11.1v3.4h-2.9V5.2h4c1,0,1.7,0.1,2.3,0.3c0.5,0.2,0.9,0.6,1.2,1c0.3,0.5,0.5,1,0.5,1.6
		c0,0.9-0.3,1.6-0.9,2.2s-1.4,0.8-2.5,0.8H56.1z M56.1,9.1h1c0.8,0,1.3-0.3,1.3-0.9c0-0.6-0.4-0.9-1.2-0.9h-1.1V9.1z"/>
	<path class="st1" d="M66.7,12l2.5,0.2c-0.2,0.7-0.5,1.3-1.2,1.7c-0.6,0.5-1.5,0.7-2.5,0.7c-1.2,0-2.1-0.3-2.8-1
		c-0.7-0.7-1-1.5-1-2.5c0-1,0.3-1.9,1-2.6s1.6-1.1,2.8-1.1c1.1,0,2,0.3,2.7,1c0.7,0.7,1,1.6,1,2.8c0,0.1,0,0.2,0,0.4h-4.7
		c0,0.4,0.1,0.8,0.2,1c0.1,0.2,0.4,0.3,0.8,0.3C66.3,12.9,66.6,12.6,66.7,12z M66.5,10.2c0-0.5-0.1-0.8-0.3-0.9
		C66.1,9.1,65.8,9,65.6,9c-0.6,0-1,0.4-1,1.2H66.5z"/>
	<path class="st1" d="M77.1,14.5h-2.7v-4.4c0-0.4-0.1-0.6-0.2-0.7c-0.1-0.1-0.3-0.2-0.4-0.2c-0.5,0-0.7,0.3-0.7,1v4.2h-2.7v-7h2.5v1
		c0.4-0.8,1-1.1,2-1.1c0.5,0,0.9,0.1,1.3,0.3c0.3,0.2,0.6,0.4,0.7,0.8c0.2,0.3,0.2,0.8,0.2,1.6V14.5z"/>
	<path class="st1" d="M82.7,11.7l2.3,0.2c-0.1,0.8-0.5,1.5-1,2c-0.6,0.5-1.3,0.8-2.3,0.8c-1.1,0-1.9-0.3-2.6-1c-0.7-0.7-1-1.5-1-2.6
		c0-1.1,0.3-1.9,1-2.6c0.7-0.7,1.5-1,2.6-1c0.9,0,1.7,0.3,2.3,0.8c0.6,0.5,0.9,1.2,1,2l-2.4,0.2c-0.1-0.7-0.4-1.1-0.8-1.1
		c-0.3,0-0.5,0.1-0.6,0.4C81,9.9,81,10.4,81,11.1c0,0.6,0.1,1,0.2,1.3c0.1,0.3,0.4,0.4,0.7,0.4C82.4,12.7,82.7,12.4,82.7,11.7z"/>
	<path class="st1" d="M88.6,4.9v2.2h-2.7V4.9H88.6z M88.6,7.6v7h-2.7v-7H88.6z"/>
	<path class="st1" d="M92.7,5.2v9.3H90V5.2H92.7z"/>
</g>
<g>
	<path d="M10.7,10.4C10.7,10.4,10.7,10.4,10.7,10.4c0.2,0,0.4,0,0.6,0H10.7z"/>
</g>
<g>
	<g>
		<g>
			<g>
				<g>
					<path d="M10.7,10.4C10.7,10.4,10.7,10.4,10.7,10.4c0.2,0,0.4,0,0.6,0H10.7z"/>
				</g>
			</g>
		</g>
	</g>
</g>
<g>
	<g>
		<path class="st1" d="M27.1,4.9H10.2h-0.1c0-0.1,0-0.2,0-0.4c0-0.2,0-0.6,0-1C10.1,3,10,2.4,10,1.9c0-0.4,0-0.6,0-1
			c0,0,0-0.1,0-0.2c-0.1,0-0.1,0-0.2,0c-1.5,0-3,0-4.5,0H4.9c-0.1,0-0.1,0-0.2,0.1C4.5,1.1,4.5,1.3,4.5,1.5l0,0c0,0.1,0,0.1,0.1,0.1
			h3.2c0,0,0.1,0,0.2,0v0.1c0,0.6,0.1,1.4,0.1,2c0,0.7,0.1,1.5,0.1,2.1c0,0.9,0.1,1.7,0.2,2.7v0.1c-0.1,0-0.1,0-0.2,0h-5
			c-0.1,0-0.2,0-0.4,0C2.7,8.9,2.5,9.1,2.5,9.4c0,0.2,0.1,0.4,0.4,0.4c0.1,0,0.1,0,0.2,0h9.2c0.2-0.4,0.5-0.7,0.9-1
			c0.1,0,0.1-0.1,0.2-0.1c0.5,0,0.9,0,1.2,0c0.1,0,0.4,0,0.5,0.1c2.2,1,4.6,2.1,6.9,3.1c0.2,0.1,0.4,0.2,0.6,0.4
			c-0.2,0.1-0.6,0.2-0.9,0.5c-2.1,1.1-4.4,2.2-6.5,3.4c1.6,0,3.2,0,4.6,0c1.1,0,2.2-0.6,2.7-1.7c1.9-3.9,4.6-9.4,4.6-9.4
			C27.2,4.9,27.2,4.9,27.1,4.9z"/>
		<path class="st1" d="M11.1,15.7c0,0,0.9,0,2,0h0.2c0.5,0,0.9,0,1.4,0c0.1,0,0.2,0,0.4-0.1c1.2-0.6,2.5-1.4,3.9-2
			c0.2-0.1,0.4-0.2,0.6-0.4c0.2-0.1,0.6-0.2,0.9-0.5c0.4-0.1,0.6-0.4,1-0.5c-0.1,0-0.1-0.1-0.1-0.1c-0.6-0.2-1.1-0.5-1.7-0.7
			c-0.2-0.1-0.5-0.1-0.6-0.2c-1.2-0.6-2.5-1.1-3.7-1.7c-0.1,0-0.2-0.1-0.4-0.1c-0.4,0-0.7,0-1.2,0c-0.1,0.1-0.2,0.2-0.4,0.4
			C13.1,9.8,13,9.9,13,10h0.7c0.1,0,0.1,0,0.1,0c0.1,0,0.2,0.1,0.4,0.2l0,0l0,0c0,0.1,0,0.1,0,0.2c0,0,0,0,0,0.1
			c0,0.1-0.1,0.1-0.1,0.2C14,11,13.9,11,13.7,11H8c-0.1,0-0.1,0-0.2,0c-0.2,0-0.4,0.1-0.5,0.2c0,0.1-0.1,0.2,0,0.2
			c0,0.1,0.1,0.2,0.2,0.2h6.7h0.1c0.2,0,0.4,0.2,0.2,0.5c0,0.1-0.1,0.2-0.2,0.2c-0.1,0.1-0.1,0.1-0.2,0.1c-0.1,0-0.1,0-0.2,0h-5
			c-0.1,0-0.1,0-0.2,0c-0.2,0-0.5,0.2-0.5,0.5c0,0.2,0.1,0.4,0.2,0.4h0.1h4.2c0.1,0,0.1,0,0.2,0h0.1l0,0c0.1,0,0.1,0.1,0.1,0.2l0,0
			c0,0.1,0,0.1,0,0.2c0,0.1-0.1,0.1-0.2,0.2c-0.1,0.1-0.2,0.1-0.4,0.1H5.7c-0.2,0-0.5,0.1-0.5,0.4c0,0.2,0.1,0.5,0.4,0.5h3.9
			c0.1,0,0.1,0,0.2,0c0,0.2-0.5,1.6-0.4,1.8c0.1,0,11,0,11.1,0c0-0.1,0.1-0.4,0.1-0.5c-0.1,0-9.6,0-9.6,0
			C10.6,17,11.1,15.9,11.1,15.7z M15,10.1c0.2,0.1,0.6,0.2,1,0.5c0.6,0.2,1.2,0.6,2,0.9c0.1,0,0.1,0.1,0.1,0.2V13
			c0,0.1,0,0.1-0.1,0.2c-1,0.5-2,1-3,1.5C15,13.2,15,11.7,15,10.1z"/>
		<path class="st1" d="M3.4,12c-0.7,0-1.5,0-2.1,0c-0.1,0-0.1,0-0.2,0c-0.1,0-0.2-0.1-0.2-0.4s0.2-0.5,0.5-0.5c0.1,0,0.1,0,0.2,0
			c1.5,0,3,0,4.5,0h0.1c0.2,0,0.4,0.2,0.2,0.4c0,0.2-0.2,0.5-0.5,0.5c-0.1,0-0.1,0-0.2,0C4.9,12,4.1,12,3.4,12z"/>
		<path class="st1" d="M5,12.9c0.6,0,1.4,0,2,0c0.1,0,0.1,0,0.2,0c0.1,0,0.2,0.1,0.2,0.4S7.2,13.7,7,13.7c-0.1,0-0.1,0-0.2,0
			c-1.4,0-2.9,0-4.2,0c-0.1,0-0.1,0-0.2,0S2,13.6,2,13.4s0.2-0.5,0.5-0.5c0.1,0,0.1,0,0.2,0C3.6,12.9,4.2,12.9,5,12.9z"/>
		<path class="st1" d="M8.9,19.9c-0.1,0-0.2,0-0.4,0c-0.4-0.1-0.7-0.5-0.7-0.9c0-0.2,0-0.5,0.2-0.7c0.2-0.5,0.7-0.7,1.2-0.9
			c0.2,0,0.5,0,0.7,0.1c0.2,0.1,0.4,0.4,0.5,0.7c0,0.2,0,0.5-0.1,0.7c-0.2,0.5-0.6,0.7-1.1,0.9C9,19.9,8.9,19.9,8.9,19.9z"/>
		<path class="st1" d="M19.8,19.9c-0.1,0-0.2,0-0.4-0.1c-0.4-0.1-0.6-0.5-0.6-1c0-0.7,0.7-1.4,1.4-1.5c0.2,0,0.4,0,0.6,0
			c0.5,0.1,0.7,0.6,0.7,1.1c-0.1,0.7-0.5,1.1-1.2,1.4C20.1,19.9,20,19.9,19.8,19.9z"/>
		<path class="st1" d="M2.7,14.7c0.2,0,0.6,0,0.9,0h0.1c0.4,0,0.5,0.2,0.4,0.5c-0.1,0.2-0.2,0.4-0.5,0.4H3.5c-0.6,0-1.4,0-2,0H1.4
			c-0.2,0-0.4-0.2-0.4-0.5c0.1-0.2,0.2-0.4,0.5-0.4c0.1,0,0.2,0,0.4,0C2.4,14.7,2.5,14.7,2.7,14.7z"/>
	</g>
</g>
</svg>
