<?xml version="1.0" encoding="utf-8"?>
<!-- Generator: Adobe Illustrator 25.0.0, SVG Export Plug-In . SVG Version: 6.00 Build 0)  -->
<svg version="1.1" id="Layer_1" xmlns="http://www.w3.org/2000/svg" xmlns:xlink="http://www.w3.org/1999/xlink" x="0px" y="0px"
	 viewBox="0 0 100 20" style="enable-background:new 0 0 100 20;" xml:space="preserve">
<style type="text/css">
	.st0{fill:#1E293B;}
	.st1{fill:#F1F5F9;}
</style>
<g>
	<path class="st0" d="M27.2,11.8l2.7-0.5c0.2,0.8,0.8,1.1,1.7,1.1c0.7,0,1.1-0.2,1.1-0.6c0-0.2-0.1-0.4-0.2-0.5
		c-0.2-0.1-0.5-0.2-0.9-0.3c-1.6-0.3-2.7-0.7-3.2-1.2S27.7,8.7,27.7,8c0-0.9,0.3-1.6,1-2.2C29.3,5.3,30.3,5,31.5,5
		c1.9,0,3.2,0.8,3.8,2.3L32.9,8c-0.2-0.6-0.7-0.9-1.5-0.9c-0.6,0-0.9,0.2-0.9,0.6c0,0.2,0.1,0.3,0.2,0.4s0.4,0.2,0.8,0.3
		c1.1,0.2,1.9,0.4,2.4,0.6s0.9,0.5,1.2,0.9s0.5,1,0.5,1.6c0,0.9-0.4,1.7-1.1,2.3s-1.8,0.9-3,0.9C29.1,14.7,27.7,13.7,27.2,11.8z"/>
	<path class="st0" d="M43.4,14.5h-2.7v-4.2c0-0.4,0-0.6-0.1-0.8c-0.1-0.1-0.2-0.2-0.5-0.2c-0.2,0-0.3,0.1-0.5,0.2
		c-0.1,0.1-0.2,0.2-0.2,0.3s0,0.4,0,0.7v3.9h-2.7V5.2h2.7v3.2c0.5-0.6,1.1-1,1.9-1c0.4,0,0.8,0.1,1.1,0.2s0.5,0.3,0.7,0.5
		s0.3,0.4,0.3,0.6s0.1,0.6,0.1,1.2L43.4,14.5L43.4,14.5z"/>
	<path class="st0" d="M48.2,14.7c-1.2,0-2.1-0.4-2.7-1.1c-0.7-0.7-1-1.6-1-2.5c0-1,0.4-1.9,1.1-2.6c0.7-0.7,1.6-1,2.8-1
		c1.1,0,2.1,0.3,2.8,1s1,1.5,1,2.6c0,1-0.4,1.9-1.1,2.6C50.3,14.3,49.4,14.7,48.2,14.7z M48.2,13c0.4,0,0.7-0.2,0.8-0.7
		c0.1-0.4,0.1-0.9,0.1-1.4c0-0.7-0.1-1.1-0.2-1.4s-0.4-0.4-0.7-0.4s-0.5,0.1-0.7,0.4s-0.2,0.8-0.2,1.5c0,0.8,0.1,1.3,0.2,1.6
		C47.7,12.9,47.9,13,48.2,13z"/>
	<path class="st0" d="M56.1,11.1v3.4h-2.9V5.2h4c1,0,1.7,0.1,2.3,0.3c0.5,0.2,0.9,0.6,1.2,1c0.3,0.5,0.5,1,0.5,1.6
		c0,0.9-0.3,1.6-0.9,2.2s-1.4,0.8-2.5,0.8H56.1z M56.1,9.1h1c0.8,0,1.3-0.3,1.3-0.9S58,7.3,57.2,7.3h-1.1V9.1z"/>
	<path class="st1" d="M66.7,12l2.5,0.2c-0.2,0.7-0.5,1.3-1.2,1.7c-0.6,0.5-1.5,0.7-2.5,0.7c-1.2,0-2.1-0.3-2.8-1s-1-1.5-1-2.5
		s0.3-1.9,1-2.6s1.6-1.1,2.8-1.1c1.1,0,2,0.3,2.7,1s1,1.6,1,2.8c0,0.1,0,0.2,0,0.4h-4.7c0,0.4,0.1,0.8,0.2,1s0.4,0.3,0.8,0.3
		C66.3,12.9,66.6,12.6,66.7,12z M66.5,10.2c0-0.5-0.1-0.8-0.3-0.9C66.1,9.1,65.8,9,65.6,9c-0.6,0-1,0.4-1,1.2H66.5z"/>
	<path class="st1" d="M77.1,14.5h-2.7v-4.4c0-0.4-0.1-0.6-0.2-0.7c-0.1-0.1-0.3-0.2-0.4-0.2c-0.5,0-0.7,0.3-0.7,1v4.2h-2.7v-7h2.5v1
		c0.4-0.8,1-1.1,2-1.1c0.5,0,0.9,0.1,1.3,0.3c0.3,0.2,0.6,0.4,0.7,0.8c0.2,0.3,0.2,0.8,0.2,1.6C77.1,10,77.1,14.5,77.1,14.5z"/>
	<path class="st1" d="M82.7,11.7l2.3,0.2c-0.1,0.8-0.5,1.5-1,2c-0.6,0.5-1.3,0.8-2.3,0.8c-1.1,0-1.9-0.3-2.6-1s-1-1.5-1-2.6
		s0.3-1.9,1-2.6c0.7-0.7,1.5-1,2.6-1c0.9,0,1.7,0.3,2.3,0.8c0.6,0.5,0.9,1.2,1,2l-2.4,0.2c-0.1-0.7-0.4-1.1-0.8-1.1
		c-0.3,0-0.5,0.1-0.6,0.4C81,9.9,81,10.4,81,11.1c0,0.6,0.1,1,0.2,1.3s0.4,0.4,0.7,0.4C82.4,12.7,82.7,12.4,82.7,11.7z"/>
	<path class="st1" d="M88.6,4.9v2.2h-2.7V4.9H88.6z M88.6,7.6v7h-2.7v-7C85.9,7.6,88.6,7.6,88.6,7.6z"/>
	<path class="st1" d="M92.7,5.2v9.3H90V5.2H92.7z"/>
</g>
<g>
	<path class="st1" d="M27,4.8H10.1H10c0-0.1,0-0.2,0-0.4c0-0.2,0-0.6,0-1c0-0.5-0.1-1.1-0.1-1.6c0-0.4,0-0.6,0-1c0,0,0-0.1,0-0.2
		c-0.1,0-0.1,0-0.2,0c-1.5,0-3,0-4.5,0H4.7c-0.1,0-0.1,0-0.2,0.1C4.4,1,4.4,1.1,4.4,1.4l0,0c0,0.1,0,0.1,0.1,0.1h3.2
		c0,0,0.1,0,0.2,0v0.1c0,0.6,0.1,1.4,0.1,2c0,0.7,0.1,1.5,0.1,2.1c0,0.9,0.1,1.7,0.2,2.7v0.1c-0.1,0-0.1,0-0.2,0h-5
		c-0.1,0-0.2,0-0.4,0C2.6,8.7,2.4,9,2.4,9.2c0,0.2,0.1,0.4,0.4,0.4c0.1,0,0.1,0,0.2,0h9.2c0.2-0.4,0.5-0.7,0.9-1
		c0.1,0,0.1-0.1,0.2-0.1c0.5,0,0.9,0,1.2,0c0.1,0,0.4,0,0.5,0.1c2.2,1,4.6,2.1,6.9,3.1c0.2,0.1,0.4,0.2,0.6,0.4
		c-0.2,0.1-0.6,0.2-0.9,0.5c-2.1,1.1-4.4,2.2-6.5,3.4c1.6,0,3.2,0,4.6,0c1.1,0,2.2-0.6,2.7-1.7c1.9-3.9,4.6-9.4,4.6-9.4
		C27.1,4.8,27.1,4.8,27,4.8z"/>
	<path class="st1" d="M11,15.6c0,0,0.9,0,2,0h0.2c0.5,0,0.9,0,1.4,0c0.1,0,0.2,0,0.4-0.1c1.2-0.6,2.5-1.4,3.9-2
		c0.2-0.1,0.4-0.2,0.6-0.4c0.2-0.1,0.6-0.2,0.9-0.5c0.4-0.1,0.6-0.4,1-0.5c-0.1,0-0.1-0.1-0.1-0.1c-0.6-0.2-1.1-0.5-1.7-0.7
		c-0.2-0.1-0.5-0.1-0.6-0.2c-1.2-0.6-2.5-1.1-3.7-1.7c-0.1,0-0.2-0.1-0.4-0.1c-0.4,0-0.7,0-1.2,0c-0.1,0.1-0.2,0.2-0.4,0.4
		c-0.1,0.1-0.2,0.2-0.2,0.4h0.7c0.1,0,0.1,0,0.1,0c0.1,0,0.2,0.1,0.4,0.2l0,0l0,0c0,0.1,0,0.1,0,0.2c0,0,0,0,0,0.1
		c0,0.1-0.1,0.1-0.1,0.2c-0.1,0.1-0.2,0.1-0.4,0.1H7.9c-0.1,0-0.1,0-0.2,0c-0.2,0-0.4,0.1-0.5,0.2c0,0.1-0.1,0.2,0,0.2
		c0,0.1,0.1,0.2,0.2,0.2h6.7h0.1c0.2,0,0.4,0.2,0.2,0.5c0,0.1-0.1,0.2-0.2,0.2c-0.1,0.1-0.1,0.1-0.2,0.1c-0.1,0-0.1,0-0.2,0h-5
		c-0.1,0-0.1,0-0.2,0C8.2,12.5,8,12.7,8,13c0,0.2,0.1,0.4,0.2,0.4h0.1h4.2c0.1,0,0.1,0,0.2,0H13l0,0c0.1,0,0.1,0.1,0.1,0.2l0,0
		c0,0.1,0,0.1,0,0.2c0,0.1-0.1,0.1-0.2,0.2c-0.1,0.1-0.2,0.1-0.4,0.1H5.6c-0.2,0-0.5,0.1-0.5,0.4c0,0.2,0.1,0.5,0.4,0.5h3.9
		c0.1,0,0.1,0,0.2,0c0,0.2-0.5,1.6-0.4,1.8c0.1,0,11,0,11.1,0c0-0.1,0.1-0.4,0.1-0.5c-0.1,0-9.6,0-9.6,0C10.5,16.8,11,15.7,11,15.6z
		 M14.8,10c0.2,0.1,0.6,0.2,1,0.5c0.6,0.2,1.2,0.6,2,0.9c0.1,0,0.1,0.1,0.1,0.2v1.2c0,0.1,0,0.1-0.1,0.2c-1,0.5-2,1-3,1.5
		C14.8,13.1,14.8,11.6,14.8,10z"/>
	<path class="st1" d="M3.2,11.9c-0.7,0-1.5,0-2.1,0c-0.1,0-0.1,0-0.2,0c-0.1,0-0.2-0.1-0.2-0.4c0-0.2,0.2-0.5,0.5-0.5
		c0.1,0,0.1,0,0.2,0c1.5,0,3,0,4.5,0H6c0.2,0,0.4,0.2,0.2,0.4c0,0.2-0.2,0.5-0.5,0.5c-0.1,0-0.1,0-0.2,0C4.7,11.9,4,11.9,3.2,11.9z"
		/>
	<path class="st1" d="M4.9,12.7c0.6,0,1.4,0,2,0c0.1,0,0.1,0,0.2,0c0.1,0,0.2,0.1,0.2,0.4c0,0.2-0.2,0.5-0.5,0.5c-0.1,0-0.1,0-0.2,0
		c-1.4,0-2.9,0-4.2,0c-0.1,0-0.1,0-0.2,0s-0.2-0.1-0.2-0.4c0-0.2,0.2-0.5,0.5-0.5c0.1,0,0.1,0,0.2,0C3.5,12.7,4.1,12.7,4.9,12.7z"/>
	<path class="st1" d="M8.7,19.7c-0.1,0-0.2,0-0.4,0c-0.4-0.1-0.7-0.5-0.7-0.9c0-0.2,0-0.5,0.2-0.7c0.2-0.5,0.7-0.7,1.2-0.9
		c0.2,0,0.5,0,0.7,0.1s0.4,0.4,0.5,0.7c0,0.2,0,0.5-0.1,0.7c-0.2,0.5-0.6,0.7-1.1,0.9C8.8,19.7,8.7,19.7,8.7,19.7z"/>
	<path class="st1" d="M19.7,19.7c-0.1,0-0.2,0-0.4-0.1c-0.4-0.1-0.6-0.5-0.6-1c0-0.7,0.7-1.4,1.4-1.5c0.2,0,0.4,0,0.6,0
		c0.5,0.1,0.7,0.6,0.7,1.1c-0.1,0.7-0.5,1.1-1.2,1.4C20,19.7,19.8,19.7,19.7,19.7z"/>
	<path class="st1" d="M2.6,14.6c0.2,0,0.6,0,0.9,0h0.1c0.4,0,0.5,0.2,0.4,0.5c-0.1,0.2-0.2,0.4-0.5,0.4H3.4c-0.6,0-1.4,0-2,0H1.2
		c-0.2,0-0.4-0.2-0.4-0.5c0.1-0.2,0.2-0.4,0.5-0.4c0.1,0,0.2,0,0.4,0C2.2,14.6,2.4,14.6,2.6,14.6z"/>
</g>
<g>
	<path d="M10.7,10.4L10.7,10.4c0.2,0,0.4,0,0.6,0H10.7z"/>
</g>
<g>
	<g>
		<g>
			<g>
				<g>
					<path d="M10.7,10.4L10.7,10.4c0.2,0,0.4,0,0.6,0H10.7z"/>
				</g>
			</g>
		</g>
	</g>
</g>
</svg>
